<?xml version="1.0" encoding="utf-8"?><!DOCTYPE svg PUBLIC "-//W3C//DTD SVG 1.1//EN" "http://www.w3.org/Graphics/SVG/1.1/DTD/svg11.dtd"><svg version="1" xmlns="http://www.w3.org/2000/svg" width="1000" height="600"><defs id="_ABSTRACT_RENDERER_ID_69"><clipPath id="_ABSTRACT_RENDERER_ID_70"><rect x="188" y="115" width="625" height="371"></rect></clipPath><filter id="_ABSTRACT_RENDERER_ID_71"><feGaussianBlur in="SourceAlpha" stdDeviation="2"></feGaussianBlur><feOffset dx="1" dy="1"></feOffset><feComponentTransfer><feFuncA type="linear" slope="0.1"></feFuncA></feComponentTransfer><feMerge><feMergeNode></feMergeNode><feMergeNode in="SourceGraphic"></feMergeNode></feMerge></filter></defs><rect x="0" y="0" width="1000" height="600" stroke="none" stroke-width="0" fill="#ffffff"></rect><g><rect x="828" y="115" width="157" height="59" stroke="none" stroke-width="0" fill-opacity="0" fill="#ffffff"></rect><g><rect x="828" y="115" width="157" height="35" stroke="none" stroke-width="0" fill-opacity="0" fill="#ffffff"></rect><g><text text-anchor="start" x="864" y="127.75" font-family="Arial" font-size="15" stroke="none" stroke-width="0" fill="#222222">Time (in</text><text text-anchor="start" x="864" y="147.75" font-family="Arial" font-size="15" stroke="none" stroke-width="0" fill="#222222">microseconds)</text></g><rect x="828" y="115" width="30" height="15" stroke="none" stroke-width="0" fill="#db4437"></rect></g><g><rect x="828" y="159" width="30" height="15" stroke="none" stroke-width="0" fill-opacity="0" fill="#ffffff"></rect><rect x="828" y="159" width="30" height="15" stroke="none" stroke-width="0" fill="#db4437"></rect></g></g><g><rect x="188" y="115" width="625" height="371" stroke="none" stroke-width="0" fill-opacity="0" fill="#ffffff"></rect><g clip-path="url(#_ABSTRACT_RENDERER_ID_70)"><g><rect x="188" y="485" width="625" height="1" stroke="none" stroke-width="0" fill="#cccccc"></rect><rect x="188" y="423" width="625" height="1" stroke="none" stroke-width="0" fill="#cccccc"></rect><rect x="188" y="362" width="625" height="1" stroke="none" stroke-width="0" fill="#cccccc"></rect><rect x="188" y="300" width="625" height="1" stroke="none" stroke-width="0" fill="#cccccc"></rect><rect x="188" y="238" width="625" height="1" stroke="none" stroke-width="0" fill="#cccccc"></rect><rect x="188" y="177" width="625" height="1" stroke="none" stroke-width="0" fill="#cccccc"></rect><rect x="188" y="115" width="625" height="1" stroke="none" stroke-width="0" fill="#cccccc"></rect><rect x="188" y="454" width="625" height="1" stroke="none" stroke-width="0" fill="#ebebeb"></rect><rect x="188" y="393" width="625" height="1" stroke="none" stroke-width="0" fill="#ebebeb"></rect><rect x="188" y="331" width="625" height="1" stroke="none" stroke-width="0" fill="#ebebeb"></rect><rect x="188" y="269" width="625" height="1" stroke="none" stroke-width="0" fill="#ebebeb"></rect><rect x="188" y="208" width="625" height="1" stroke="none" stroke-width="0" fill="#ebebeb"></rect><rect x="188" y="146" width="625" height="1" stroke="none" stroke-width="0" fill="#ebebeb"></rect></g><g><rect x="206" y="190" width="27" height="295" stroke="none" stroke-width="0" fill="#db4437"></rect><rect x="295" y="187" width="27" height="298" stroke="none" stroke-width="0" fill="#db4437"></rect><rect x="384" y="180" width="27" height="305" stroke="none" stroke-width="0" fill="#db4437"></rect><rect x="473" y="177" width="27" height="308" stroke="none" stroke-width="0" fill="#db4437"></rect><rect x="562" y="155" width="27" height="330" stroke="none" stroke-width="0" fill="#db4437"></rect><rect x="651" y="154" width="27" height="331" stroke="none" stroke-width="0" fill="#db4437"></rect><rect x="740" y="147" width="27" height="338" stroke="none" stroke-width="0" fill="#db4437"></rect><rect x="234" y="485" width="27" height="0.5" stroke="none" stroke-width="0" fill="#db4437"></rect><rect x="323" y="485" width="27" height="0.5" stroke="none" stroke-width="0" fill="#db4437"></rect><rect x="412" y="485" width="27" height="0.5" stroke="none" stroke-width="0" fill="#db4437"></rect><rect x="501" y="485" width="27" height="0.5" stroke="none" stroke-width="0" fill="#db4437"></rect><rect x="590" y="485" width="27" height="0.5" stroke="none" stroke-width="0" fill="#db4437"></rect><rect x="679" y="485" width="27" height="0.5" stroke="none" stroke-width="0" fill="#db4437"></rect><rect x="768" y="485" width="27" height="0.5" stroke="none" stroke-width="0" fill="#db4437"></rect></g><g><rect x="188" y="485" width="625" height="1" stroke="none" stroke-width="0" fill="#333333"></rect></g></g><g></g><g><g><text text-anchor="end" x="235.69642857142856" y="504.0466333698683" font-family="Arial" font-size="15" transform="rotate(-30 235.69642857142856 504.0466333698683)" stroke="none" stroke-width="0" fill="#222222">adition</text></g><g><text text-anchor="end" x="324.8392857142857" y="504.0466333698683" font-family="Arial" font-size="15" transform="rotate(-30 324.8392857142857 504.0466333698683)" stroke="none" stroke-width="0" fill="#222222">CppCodec</text></g><g><text text-anchor="end" x="413.98214285714283" y="504.0466333698683" font-family="Arial" font-size="15" transform="rotate(-30 413.98214285714283 504.0466333698683)" stroke="none" stroke-width="0" fill="#222222">jounimalinen</text></g><g><text text-anchor="end" x="503.125" y="504.0466333698683" font-family="Arial" font-size="15" transform="rotate(-30 503.125 504.0466333698683)" stroke="none" stroke-width="0" fill="#222222">polfosol</text></g><g><text text-anchor="end" x="592.2678571428571" y="504.0466333698683" font-family="Arial" font-size="15" transform="rotate(-30 592.2678571428571 504.0466333698683)" stroke="none" stroke-width="0" fill="#222222">internetsoftwareconsortium</text></g><g><text text-anchor="end" x="681.4107142857142" y="504.0466333698683" font-family="Arial" font-size="15" transform="rotate(-30 681.4107142857142 504.0466333698683)" stroke="none" stroke-width="0" fill="#222222">NibbleAndAHalf</text></g><g><text text-anchor="end" x="770.5535714285714" y="504.0466333698683" font-family="Arial" font-size="15" transform="rotate(-30 770.5535714285714 504.0466333698683)" stroke="none" stroke-width="0" fill="#222222">apache</text></g><g><text text-anchor="end" x="173" y="490.75" font-family="Arial" font-size="15" stroke="none" stroke-width="0" fill="#444444">0</text></g><g><text text-anchor="end" x="173" y="429.0833" font-family="Arial" font-size="15" stroke="none" stroke-width="0" fill="#444444">10</text></g><g><text text-anchor="end" x="173" y="367.4167" font-family="Arial" font-size="15" stroke="none" stroke-width="0" fill="#444444">20</text></g><g><text text-anchor="end" x="173" y="305.75" font-family="Arial" font-size="15" stroke="none" stroke-width="0" fill="#444444">30</text></g><g><text text-anchor="end" x="173" y="244.0833" font-family="Arial" font-size="15" stroke="none" stroke-width="0" fill="#444444">40</text></g><g><text text-anchor="end" x="173" y="182.4167" font-family="Arial" font-size="15" stroke="none" stroke-width="0" fill="#444444">50</text></g><g><text text-anchor="end" x="173" y="120.75" font-family="Arial" font-size="15" stroke="none" stroke-width="0" fill="#444444">60</text></g></g></g><g></g></svg>