<?xml version="1.0" encoding="utf-8"?><!DOCTYPE svg PUBLIC "-//W3C//DTD SVG 1.1//EN" "http://www.w3.org/Graphics/SVG/1.1/DTD/svg11.dtd"><svg version="1" xmlns="http://www.w3.org/2000/svg" width="1000" height="600"><defs id="_ABSTRACT_RENDERER_ID_70"><clipPath id="_ABSTRACT_RENDERER_ID_71"><rect x="188" y="115" width="625" height="371"></rect></clipPath><filter id="_ABSTRACT_RENDERER_ID_72"><feGaussianBlur in="SourceAlpha" stdDeviation="2"></feGaussianBlur><feOffset dx="1" dy="1"></feOffset><feComponentTransfer><feFuncA type="linear" slope="0.1"></feFuncA></feComponentTransfer><feMerge><feMergeNode></feMergeNode><feMergeNode in="SourceGraphic"></feMergeNode></feMerge></filter></defs><rect x="0" y="0" width="1000" height="600" stroke="none" stroke-width="0" fill="#ffffff"></rect><g><rect x="828" y="115" width="157" height="35" stroke="none" stroke-width="0" fill-opacity="0" fill="#ffffff"></rect><g><rect x="828" y="115" width="157" height="35" stroke="none" stroke-width="0" fill-opacity="0" fill="#ffffff"></rect><g><text text-anchor="start" x="864" y="127.75" font-family="Arial" font-size="15" stroke="none" stroke-width="0" fill="#222222">Time (in</text><text text-anchor="start" x="864" y="147.75" font-family="Arial" font-size="15" stroke="none" stroke-width="0" fill="#222222">microseconds)</text></g><rect x="828" y="115" width="30" height="15" stroke="none" stroke-width="0" fill="#db4437"></rect></g></g><g><rect x="188" y="115" width="625" height="371" stroke="none" stroke-width="0" fill-opacity="0" fill="#ffffff"></rect><g clip-path="url(#_ABSTRACT_RENDERER_ID_71)"><g><rect x="188" y="485" width="625" height="1" stroke="none" stroke-width="0" fill="#cccccc"></rect><rect x="188" y="439" width="625" height="1" stroke="none" stroke-width="0" fill="#cccccc"></rect><rect x="188" y="393" width="625" height="1" stroke="none" stroke-width="0" fill="#cccccc"></rect><rect x="188" y="346" width="625" height="1" stroke="none" stroke-width="0" fill="#cccccc"></rect><rect x="188" y="300" width="625" height="1" stroke="none" stroke-width="0" fill="#cccccc"></rect><rect x="188" y="254" width="625" height="1" stroke="none" stroke-width="0" fill="#cccccc"></rect><rect x="188" y="208" width="625" height="1" stroke="none" stroke-width="0" fill="#cccccc"></rect><rect x="188" y="161" width="625" height="1" stroke="none" stroke-width="0" fill="#cccccc"></rect><rect x="188" y="115" width="625" height="1" stroke="none" stroke-width="0" fill="#cccccc"></rect><rect x="188" y="462" width="625" height="1" stroke="none" stroke-width="0" fill="#ebebeb"></rect><rect x="188" y="416" width="625" height="1" stroke="none" stroke-width="0" fill="#ebebeb"></rect><rect x="188" y="369" width="625" height="1" stroke="none" stroke-width="0" fill="#ebebeb"></rect><rect x="188" y="323" width="625" height="1" stroke="none" stroke-width="0" fill="#ebebeb"></rect><rect x="188" y="277" width="625" height="1" stroke="none" stroke-width="0" fill="#ebebeb"></rect><rect x="188" y="231" width="625" height="1" stroke="none" stroke-width="0" fill="#ebebeb"></rect><rect x="188" y="184" width="625" height="1" stroke="none" stroke-width="0" fill="#ebebeb"></rect><rect x="188" y="138" width="625" height="1" stroke="none" stroke-width="0" fill="#ebebeb"></rect></g><g><rect x="199" y="444" width="35" height="41" stroke="none" stroke-width="0" fill="#db4437"></rect><rect x="256" y="417" width="35" height="68" stroke="none" stroke-width="0" fill="#db4437"></rect><rect x="313" y="415" width="35" height="70" stroke="none" stroke-width="0" fill="#db4437"></rect><rect x="370" y="393" width="35" height="92" stroke="none" stroke-width="0" fill="#db4437"></rect><rect x="426" y="380" width="35" height="105" stroke="none" stroke-width="0" fill="#db4437"></rect><rect x="483" y="369" width="35" height="116" stroke="none" stroke-width="0" fill="#db4437"></rect><rect x="540" y="358" width="35" height="127" stroke="none" stroke-width="0" fill="#db4437"></rect><rect x="596" y="346" width="35" height="139" stroke="none" stroke-width="0" fill="#db4437"></rect><rect x="653" y="295" width="35" height="190" stroke="none" stroke-width="0" fill="#db4437"></rect><rect x="710" y="175" width="35" height="310" stroke="none" stroke-width="0" fill="#db4437"></rect><rect x="767" y="162" width="35" height="323" stroke="none" stroke-width="0" fill="#db4437"></rect></g><g><rect x="188" y="485" width="625" height="1" stroke="none" stroke-width="0" fill="#333333"></rect></g></g><g></g><g><g><text text-anchor="end" x="219.48863636363637" y="507.0466333698683" font-family="Arial" font-size="15" transform="rotate(-30 219.48863636363637 507.0466333698683)" stroke="none" stroke-width="0" fill="#222222">polfosol</text></g><g><text text-anchor="end" x="276.2159090909091" y="507.0466333698683" font-family="Arial" font-size="15" transform="rotate(-30 276.2159090909091 507.0466333698683)" stroke="none" stroke-width="0" fill="#222222">wikibooks_org_c</text></g><g><text text-anchor="end" x="332.9431818181818" y="507.0466333698683" font-family="Arial" font-size="15" transform="rotate(-30 332.9431818181818 507.0466333698683)" stroke="none" stroke-width="0" fill="#222222">apache</text></g><g><text text-anchor="end" x="389.6704545454545" y="507.0466333698683" font-family="Arial" font-size="15" transform="rotate(-30 389.6704545454545 507.0466333698683)" stroke="none" stroke-width="0" fill="#222222">libb64</text></g><g><text text-anchor="end" x="446.39772727272725" y="507.0466333698683" font-family="Arial" font-size="15" transform="rotate(-30 446.39772727272725 507.0466333698683)" stroke="none" stroke-width="0" fill="#222222">gnome</text></g><g><text text-anchor="end" x="503.125" y="507.0466333698683" font-family="Arial" font-size="15" transform="rotate(-30 503.125 507.0466333698683)" stroke="none" stroke-width="0" fill="#222222">manuelmartinez</text></g><g><text text-anchor="end" x="559.8522727272727" y="507.0466333698683" font-family="Arial" font-size="15" transform="rotate(-30 559.8522727272727 507.0466333698683)" stroke="none" stroke-width="0" fill="#222222">elegantdice</text></g><g><text text-anchor="end" x="616.5795454545455" y="507.0466333698683" font-family="Arial" font-size="15" transform="rotate(-30 616.5795454545455 507.0466333698683)" stroke="none" stroke-width="0" fill="#222222">daedalusalpha</text></g><g><text text-anchor="end" x="673.3068181818182" y="507.0466333698683" font-family="Arial" font-size="15" transform="rotate(-30 673.3068181818182 507.0466333698683)" stroke="none" stroke-width="0" fill="#222222">jounimalinen</text></g><g><text text-anchor="end" x="730.0340909090909" y="507.0466333698683" font-family="Arial" font-size="15" transform="rotate(-30 730.0340909090909 507.0466333698683)" stroke="none" stroke-width="0" fill="#222222">arduino</text></g><g><text text-anchor="end" x="786.7613636363636" y="507.0466333698683" font-family="Arial" font-size="15" transform="rotate(-30 786.7613636363636 507.0466333698683)" stroke="none" stroke-width="0" fill="#222222">wikibooks_org_cpp</text></g><g><text text-anchor="end" x="173" y="490.75" font-family="Arial" font-size="15" stroke="none" stroke-width="0" fill="#444444">0</text></g><g><text text-anchor="end" x="173" y="444.5" font-family="Arial" font-size="15" stroke="none" stroke-width="0" fill="#444444">50</text></g><g><text text-anchor="end" x="173" y="398.25" font-family="Arial" font-size="15" stroke="none" stroke-width="0" fill="#444444">100</text></g><g><text text-anchor="end" x="173" y="352" font-family="Arial" font-size="15" stroke="none" stroke-width="0" fill="#444444">150</text></g><g><text text-anchor="end" x="173" y="305.75" font-family="Arial" font-size="15" stroke="none" stroke-width="0" fill="#444444">200</text></g><g><text text-anchor="end" x="173" y="259.5" font-family="Arial" font-size="15" stroke="none" stroke-width="0" fill="#444444">250</text></g><g><text text-anchor="end" x="173" y="213.25" font-family="Arial" font-size="15" stroke="none" stroke-width="0" fill="#444444">300</text></g><g><text text-anchor="end" x="173" y="167" font-family="Arial" font-size="15" stroke="none" stroke-width="0" fill="#444444">350</text></g><g><text text-anchor="end" x="173" y="120.75" font-family="Arial" font-size="15" stroke="none" stroke-width="0" fill="#444444">400</text></g></g></g><g></g></svg>