<?xml version="1.0" encoding="utf-8"?><!DOCTYPE svg PUBLIC "-//W3C//DTD SVG 1.1//EN" "http://www.w3.org/Graphics/SVG/1.1/DTD/svg11.dtd"><svg version="1" xmlns="http://www.w3.org/2000/svg" width="1000" height="600"><defs id="_ABSTRACT_RENDERER_ID_65"><clipPath id="_ABSTRACT_RENDERER_ID_66"><rect x="188" y="115" width="625" height="371"></rect></clipPath><filter id="_ABSTRACT_RENDERER_ID_67"><feGaussianBlur in="SourceAlpha" stdDeviation="2"></feGaussianBlur><feOffset dx="1" dy="1"></feOffset><feComponentTransfer><feFuncA type="linear" slope="0.1"></feFuncA></feComponentTransfer><feMerge><feMergeNode></feMergeNode><feMergeNode in="SourceGraphic"></feMergeNode></feMerge></filter></defs><rect x="0" y="0" width="1000" height="600" stroke="none" stroke-width="0" fill="#ffffff"></rect><g><rect x="828" y="115" width="157" height="35" stroke="none" stroke-width="0" fill-opacity="0" fill="#ffffff"></rect><g><rect x="828" y="115" width="157" height="35" stroke="none" stroke-width="0" fill-opacity="0" fill="#ffffff"></rect><g><text text-anchor="start" x="864" y="127.75" font-family="Arial" font-size="15" stroke="none" stroke-width="0" fill="#222222">Time (in</text><text text-anchor="start" x="864" y="147.75" font-family="Arial" font-size="15" stroke="none" stroke-width="0" fill="#222222">microseconds)</text></g><rect x="828" y="115" width="30" height="15" stroke="none" stroke-width="0" fill="#f4b400"></rect></g></g><g><rect x="188" y="115" width="625" height="371" stroke="none" stroke-width="0" fill-opacity="0" fill="#ffffff"></rect><g clip-path="url(#_ABSTRACT_RENDERER_ID_66)"><g><rect x="188" y="485" width="625" height="1" stroke="none" stroke-width="0" fill="#cccccc"></rect><rect x="188" y="432" width="625" height="1" stroke="none" stroke-width="0" fill="#cccccc"></rect><rect x="188" y="379" width="625" height="1" stroke="none" stroke-width="0" fill="#cccccc"></rect><rect x="188" y="326" width="625" height="1" stroke="none" stroke-width="0" fill="#cccccc"></rect><rect x="188" y="274" width="625" height="1" stroke="none" stroke-width="0" fill="#cccccc"></rect><rect x="188" y="221" width="625" height="1" stroke="none" stroke-width="0" fill="#cccccc"></rect><rect x="188" y="168" width="625" height="1" stroke="none" stroke-width="0" fill="#cccccc"></rect><rect x="188" y="115" width="625" height="1" stroke="none" stroke-width="0" fill="#cccccc"></rect><rect x="188" y="459" width="625" height="1" stroke="none" stroke-width="0" fill="#ebebeb"></rect><rect x="188" y="406" width="625" height="1" stroke="none" stroke-width="0" fill="#ebebeb"></rect><rect x="188" y="353" width="625" height="1" stroke="none" stroke-width="0" fill="#ebebeb"></rect><rect x="188" y="300" width="625" height="1" stroke="none" stroke-width="0" fill="#ebebeb"></rect><rect x="188" y="247" width="625" height="1" stroke="none" stroke-width="0" fill="#ebebeb"></rect><rect x="188" y="194" width="625" height="1" stroke="none" stroke-width="0" fill="#ebebeb"></rect><rect x="188" y="141" width="625" height="1" stroke="none" stroke-width="0" fill="#ebebeb"></rect></g><g><rect x="199" y="420" width="35" height="65" stroke="none" stroke-width="0" fill="#f4b400"></rect><rect x="256" y="419" width="35" height="66" stroke="none" stroke-width="0" fill="#f4b400"></rect><rect x="313" y="384" width="35" height="101" stroke="none" stroke-width="0" fill="#f4b400"></rect><rect x="370" y="358" width="35" height="127" stroke="none" stroke-width="0" fill="#f4b400"></rect><rect x="426" y="357" width="35" height="128" stroke="none" stroke-width="0" fill="#f4b400"></rect><rect x="483" y="349" width="35" height="136" stroke="none" stroke-width="0" fill="#f4b400"></rect><rect x="540" y="288" width="35" height="197" stroke="none" stroke-width="0" fill="#f4b400"></rect><rect x="596" y="172" width="35" height="313" stroke="none" stroke-width="0" fill="#f4b400"></rect><rect x="653" y="167" width="35" height="318" stroke="none" stroke-width="0" fill="#f4b400"></rect><rect x="710" y="167" width="35" height="318" stroke="none" stroke-width="0" fill="#f4b400"></rect><rect x="767" y="152" width="35" height="333" stroke="none" stroke-width="0" fill="#f4b400"></rect></g><g><rect x="188" y="485" width="625" height="1" stroke="none" stroke-width="0" fill="#333333"></rect></g></g><g></g><g><g><text text-anchor="end" x="219.48863636363637" y="503.5466333698683" font-family="Arial" font-size="15" transform="rotate(-30 219.48863636363637 503.5466333698683)" stroke="none" stroke-width="0" fill="#222222">jounimalinen</text></g><g><text text-anchor="end" x="276.2159090909091" y="503.5466333698683" font-family="Arial" font-size="15" transform="rotate(-30 276.2159090909091 503.5466333698683)" stroke="none" stroke-width="0" fill="#222222">apache</text></g><g><text text-anchor="end" x="332.9431818181818" y="503.5466333698683" font-family="Arial" font-size="15" transform="rotate(-30 332.9431818181818 503.5466333698683)" stroke="none" stroke-width="0" fill="#222222">NibbleAndAHalf</text></g><g><text text-anchor="end" x="389.6704545454545" y="503.5466333698683" font-family="Arial" font-size="15" transform="rotate(-30 389.6704545454545 503.5466333698683)" stroke="none" stroke-width="0" fill="#222222">internetsoftwareconsortium</text></g><g><text text-anchor="end" x="446.39772727272725" y="503.5466333698683" font-family="Arial" font-size="15" transform="rotate(-30 446.39772727272725 503.5466333698683)" stroke="none" stroke-width="0" fill="#222222">polfosol</text></g><g><text text-anchor="end" x="503.125" y="503.5466333698683" font-family="Arial" font-size="15" transform="rotate(-30 503.125 503.5466333698683)" stroke="none" stroke-width="0" fill="#222222">wikibooks_org_c</text></g><g><text text-anchor="end" x="559.8522727272727" y="503.5466333698683" font-family="Arial" font-size="15" transform="rotate(-30 559.8522727272727 503.5466333698683)" stroke="none" stroke-width="0" fill="#222222">gnome</text></g><g><text text-anchor="end" x="616.5795454545455" y="503.5466333698683" font-family="Arial" font-size="15" transform="rotate(-30 616.5795454545455 503.5466333698683)" stroke="none" stroke-width="0" fill="#222222">elegantdice</text></g><g><text text-anchor="end" x="673.3068181818182" y="503.5466333698683" font-family="Arial" font-size="15" transform="rotate(-30 673.3068181818182 503.5466333698683)" stroke="none" stroke-width="0" fill="#222222">libb64</text></g><g><text text-anchor="end" x="730.0340909090909" y="503.5466333698683" font-family="Arial" font-size="15" transform="rotate(-30 730.0340909090909 503.5466333698683)" stroke="none" stroke-width="0" fill="#222222">manuelmartinez</text></g><g><text text-anchor="end" x="786.7613636363636" y="503.5466333698683" font-family="Arial" font-size="15" transform="rotate(-30 786.7613636363636 503.5466333698683)" stroke="none" stroke-width="0" fill="#222222">arduino</text></g><g><text text-anchor="end" x="173" y="490.75" font-family="Arial" font-size="15" stroke="none" stroke-width="0" fill="#444444">0</text></g><g><text text-anchor="end" x="173" y="437.8929" font-family="Arial" font-size="15" stroke="none" stroke-width="0" fill="#444444">20</text></g><g><text text-anchor="end" x="173" y="385.0357" font-family="Arial" font-size="15" stroke="none" stroke-width="0" fill="#444444">40</text></g><g><text text-anchor="end" x="173" y="332.1786" font-family="Arial" font-size="15" stroke="none" stroke-width="0" fill="#444444">60</text></g><g><text text-anchor="end" x="173" y="279.3214" font-family="Arial" font-size="15" stroke="none" stroke-width="0" fill="#444444">80</text></g><g><text text-anchor="end" x="173" y="226.4643" font-family="Arial" font-size="15" stroke="none" stroke-width="0" fill="#444444">100</text></g><g><text text-anchor="end" x="173" y="173.6071" font-family="Arial" font-size="15" stroke="none" stroke-width="0" fill="#444444">120</text></g><g><text text-anchor="end" x="173" y="120.75" font-family="Arial" font-size="15" stroke="none" stroke-width="0" fill="#444444">140</text></g></g></g><g></g></svg>